<?xml version="1.0" encoding="UTF-8"?>
<svg width="86px" height="43px" viewBox="0 0 86 43" version="1.1" xmlns="http://www.w3.org/2000/svg" xmlns:xlink="http://www.w3.org/1999/xlink">
    <title>Abstract Shape 25</title>
    <g id="Homepage" stroke="none" stroke-width="1" fill="none" fill-rule="evenodd">
        <g id="Post-Launch" transform="translate(-821.000000, -2762.000000)" fill="#FFFFFF" fill-rule="nonzero">
            <g id="Abstract-Shape-25" transform="translate(821.000000, 2762.000000)">
                <ellipse id="Oval" cx="76.4444444" cy="21.5" rx="8.75925926" ry="21.5"></ellipse>
                <ellipse id="Oval" cx="60.1203704" cy="21.5" rx="7.56481481" ry="21.5"></ellipse>
                <ellipse id="Oval" cx="45.3888889" cy="21.5" rx="6.37037037" ry="21.5"></ellipse>
                <ellipse id="Oval" cx="31.8518519" cy="21.5" rx="5.57407407" ry="21.5"></ellipse>
                <ellipse id="Oval" cx="21.8981481" cy="21.5" rx="4.37962963" ry="21.5"></ellipse>
                <ellipse id="Oval" cx="12.3425926" cy="21.5" rx="3.58333333" ry="21.5"></ellipse>
                <path d="M5.57407407,0 C4.25479954,0 3.18518519,9.62598 3.18518519,21.5 C3.18518519,33.37402 4.25479954,43 5.57407407,43 C6.89334861,43 7.96296296,33.37402 7.96296296,21.5 C7.96296296,9.62598 6.89334861,0 5.57407407,0 Z" id="Path"></path>
                <ellipse id="Oval" cx="1.19444444" cy="21.5" rx="1.19444444" ry="21.5"></ellipse>
            </g>
        </g>
    </g>
</svg>