<?xml version="1.0" encoding="UTF-8"?>
<svg width="80px" height="79px" viewBox="0 0 80 79" version="1.1" xmlns="http://www.w3.org/2000/svg" xmlns:xlink="http://www.w3.org/1999/xlink">
    <title>Abstract Shape 81</title>
    <g id="Homepage" stroke="none" stroke-width="1" fill="none" fill-rule="evenodd">
        <g id="Post-Launch" transform="translate(-212.000000, -2744.000000)" fill="#FFFFFF" fill-rule="nonzero">
            <g id="Abstract-Shape-81" transform="translate(212.000000, 2744.000000)">
                <path d="M79.7890589,30.8523439 C79.1055703,28.580523 77.0551047,27.2180378 75.2499355,26.0149519 C74.0348447,25.2035331 72.8805085,24.437657 72.2122086,23.4979596 C71.5439087,22.5582622 71.4467014,21.4356351 71.3335461,20.1315963 C71.2576029,19.2738757 71.1816597,18.3857934 70.9272501,17.4901207 C69.999984,14.2178789 67.0898416,12.7020666 64.522203,11.3653888 L64.2943735,11.2462188 C63.4491259,10.8052138 62.5780578,10.3824259 61.735848,9.97330082 C59.749934,9.00931402 57.6964307,8.01268831 55.9246765,6.7428065 C55.2411879,6.25094552 54.6055436,5.68014389 53.9364842,5.07898048 C53.1922411,4.40874399 52.4229368,3.71269998 51.5511092,3.11609084 C48.4860427,1.0089827 44.250692,-0.0119324446 38.6035578,0.000105201138 C33.3255073,0.00932080748 27.6206562,1.01809124 20.649073,3.17377824 C20.2921401,3.28383972 19.9268534,3.39314216 19.5403027,3.509276 C17.3941486,4.15142783 14.9616888,4.87555649 12.9643834,6.10748607 C10.5197727,7.61115365 9.16342765,9.64463445 8.93331984,12.1510001 C8.73966475,14.2596263 7.86479941,15.40882 6.09836122,17.0362119 C5.82648467,17.2874557 5.43309903,17.6032183 4.97819943,17.9698369 C2.88596504,19.6541571 0.0198697254,21.9616531 0.440594899,24.5044529 C0.757277927,26.4149684 2.63459314,27.5117881 4.29015429,28.4803291 C6.33606335,29.6758245 7.16156563,30.3187354 6.973986,31.2083358 C6.73780273,32.3264087 5.40803779,33.1765388 4.00005138,34.0760068 C2.14551911,35.2608756 0.0426526771,36.6051438 0.00619995445,39.0743162 C-0.0370876537,42.0027108 0.145935391,44.5751133 0.566660565,46.9387786 C0.709433728,47.7418479 0.7853769,48.5730018 0.870433253,49.4534937 C1.01548471,51.0429333 1.16661162,52.6862652 1.73846371,54.2536925 C2.8441963,57.2898714 6.14772428,58.7738038 9.06242323,60.0861921 C9.9858922,60.5021486 10.8577198,60.8945747 11.5685479,61.3006637 L11.9034573,61.4889068 C12.8679356,62.0293466 14.0685971,62.7033783 14.4293272,63.5459179 C14.6571567,64.0772492 14.5812135,64.7110516 14.5014732,65.4435297 C14.4878034,65.5657359 14.4741337,65.6879421 14.4619828,65.8101483 C14.214408,68.2239105 14.8994154,69.9089898 16.6825611,71.2684389 C18.8849131,72.9482049 21.533811,74.1816525 23.335183,74.9634686 C28.1636499,77.0607091 33.5427048,78.1734687 38.8891041,78.1818182 L38.9498586,78.1818182 C44.0215465,78.1722745 49.0449436,77.1967019 53.7511829,75.3073158 C58.7292578,73.2988835 63.0466271,70.3150787 66.2369998,66.6777364 C69.0370245,63.4897486 71.5272012,59.4372089 73.6391808,54.6453596 C74.7919981,52.0281734 75.4997885,49.3768302 75.9881031,47.3585303 C76.2083383,46.4476766 76.5470448,45.536823 76.9054966,44.5675229 C77.5487353,42.8353828 78.2139975,41.0440373 78.2291861,39.1024009 C78.236021,38.1968605 78.6240906,37.2047891 79.0349432,36.1497169 C79.6553989,34.5526869 80.3609109,32.7454014 79.7890589,30.8523439 Z M76.9108126,35.3200811 C76.4437621,36.5186127 75.9600041,37.7573737 75.9493721,39.0819067 C75.9372212,40.6273217 75.3691662,42.1567968 74.7684557,43.7765983 C74.4024097,44.7633564 74.0242127,45.7812354 73.7713219,46.8249219 C73.080239,49.6850023 72.3952316,51.8141228 71.5522624,53.7276745 C69.5344523,58.3069913 67.1695819,62.1591432 64.522203,65.177105 C61.5657353,68.5472636 57.5460632,71.3200539 52.8968222,73.1956534 C48.4430453,74.9828673 43.6884284,75.9023892 38.8891041,75.904684 C33.8533123,75.8963345 28.7886622,74.8496119 24.2381473,72.8760956 C22.545374,72.1420994 20.0612728,70.9891104 18.0609297,69.4603944 C16.905834,68.5783844 16.555736,67.6842297 16.7235704,66.0446931 C16.7357213,65.9300774 16.7486317,65.8169797 16.761542,65.7016049 C16.8648247,64.7793656 16.9825367,63.734161 16.5200427,62.6517633 C15.8547805,61.0942035 14.2789597,60.2114345 13.0122276,59.5024867 L12.6887097,59.3195569 C11.8844715,58.8641301 10.9647997,58.4481736 9.99196766,58.0102048 C7.48584298,56.8822644 4.64860607,55.6047921 3.87170742,53.4741536 C3.40161918,52.1837776 3.27099692,50.7567735 3.13202092,49.2455155 C3.05076172,48.3566741 2.9664648,47.43823 2.80698414,46.539521 C2.41207965,44.3208333 2.24044808,41.8903721 2.28145739,39.1077142 C2.29892432,37.9471348 3.40465691,37.1569693 5.22425531,35.9956309 C6.88513249,34.9329683 8.76776372,33.7321595 9.19988037,31.6789436 C9.45580886,30.464472 9.08672504,29.3532305 8.1017421,28.3733038 C7.37116879,27.646139 6.38770471,27.0715421 5.43765562,26.5159214 C4.15421602,25.7659852 2.82672937,24.9902415 2.68547507,24.1340391 C2.60953189,23.6786122 2.96190821,22.9901587 3.6727363,22.1893665 C4.45343211,21.3134289 5.53410345,20.4435636 6.40213391,19.7444835 C6.88892964,19.3528164 7.30965482,19.0135234 7.63848875,18.7106646 C9.74667121,16.765992 10.9374601,15.1780704 11.1964264,12.3604965 C11.5776611,8.27379969 16.1547561,6.89916971 20.1941734,5.69304765 C20.5852807,5.57615477 20.9536051,5.46533424 21.3226889,5.35223657 C28.0709992,3.26410456 33.5632094,2.28645496 38.6073549,2.27734642 L38.6878547,2.27734642 C43.8162971,2.27734642 47.6020642,3.16542874 50.2585564,4.99169033 C51.0073561,5.50632265 51.6885663,6.12038983 52.4100264,6.77089115 C53.093515,7.38875355 53.8058619,8.0278692 54.5964304,8.59259847 C56.5253869,9.9748189 58.6669844,11.0147102 60.7387141,12.0204444 C61.5664947,12.4219791 62.4223743,12.8379356 63.2380039,13.2637597 L63.4658334,13.3829297 C65.7304588,14.5624852 68.0717868,15.78227 68.731733,18.1095011 C68.9269069,18.7971957 68.9914586,19.5403004 69.0598075,20.3274298 C69.1835949,21.755952 69.3240897,23.3749943 70.3508414,24.8186974 C71.2621595,26.0984468 72.6458441,27.0199271 73.9824439,27.9087684 C75.6137033,28.9949614 77.1545902,30.0204309 77.6034144,31.5081585 C77.952753,32.6505208 77.4469714,33.9477282 76.9108126,35.3200811 L76.9108126,35.3200811 Z" id="Shape"></path>
                <path d="M26.129164,27.728 C27.5245905,28.6544487 30.0454571,29.9149643 29.7836748,31.9557269 C29.6031867,33.3707768 28.2450512,34.6070517 27.5290654,35.7577267 C26.9070527,36.75917 26.2432743,39.1074863 28.1085664,39.0909091 C29.6054241,39.0771855 31.5691643,36.653117 32.6580593,35.7577267 C33.8155697,34.8055223 35.4138588,33.7071163 36.0977743,32.2996416 C37.1493785,30.1338879 34.8447992,28.8014078 33.3106505,27.726485 C31.7578564,26.6386842 28.9849031,25.3024165 28.7171543,23.1139372 C28.5761946,21.97311 28.9878864,20.8125872 29.1601705,19.6967582 C29.3324546,18.5809292 29.4100197,16.3545739 27.8303761,16.3636364 C26.3215852,16.3719969 24.7725201,18.6286531 23.8902168,19.6967582 C23.125007,20.6247219 21.801925,22.1420373 21.818333,23.4692148 C21.8451825,25.4281651 24.8023529,26.8462451 26.129164,27.728 Z" id="Path"></path>
                <path d="M48.1348248,27.7272 C49.6274804,28.8779492 51.4546159,30.0756679 51.2819055,32.1506528 C51.1748406,33.4309466 50.2815918,34.5748777 49.8470805,35.7627479 C49.4125693,36.9506181 49.3828725,39.1119661 51.1279509,39.0909091 C52.6338919,39.0725724 54.2383013,36.7566801 55.2253295,35.7627479 C56.2412731,34.7385129 57.5698147,33.5498851 58.0301153,32.1506528 C58.6850082,30.1514249 57.0938842,28.9105248 55.6606223,27.7272 C54.0976322,26.4393305 51.8688082,25.1158553 51.753147,22.9045076 C51.6984423,21.8128489 52.0555856,20.7590686 52.2290775,19.6916521 C52.4127288,18.5674178 52.463526,16.3583429 50.8317643,16.3636364 C49.2601777,16.3681913 47.6221641,18.623478 46.7031259,19.6916521 C45.8434813,20.6916449 44.712658,21.9537569 44.5594849,23.3037472 C44.3383218,25.2840359 46.7851829,26.687056 48.1348248,27.7272 Z" id="Path"></path>
                <path d="M61.4377633,45.6754938 C59.9619241,45.2467738 58.3946478,45.4407715 56.6452531,46.2678529 C56.2749077,46.4373082 56.0263499,46.7890058 55.9947362,47.1883037 C55.9631226,47.5876016 56.1533496,47.9726531 56.4925919,48.1960471 C56.8318343,48.4194412 57.267547,48.4465766 57.6329243,48.267065 C58.4346987,47.8872147 59.1389907,47.6917362 59.7873624,47.6747058 C59.3120409,49.6598494 58.4603918,51.6679468 57.2482842,53.6590139 C56.8515532,54.310609 56.4729585,54.991822 56.1064546,55.6537833 C55.4165206,56.8977375 54.7031605,58.1838972 53.8651135,59.2619909 C52.6416708,60.8354448 50.7434075,62.1201237 48.3758682,62.976823 C46.2977536,63.7298596 43.8735384,64.1430301 41.5437829,64.1430301 L41.4961752,64.1430301 C37.9754712,64.1341447 35.3978534,62.6206671 32.4129251,60.8672841 C31.3134135,60.2216126 30.176118,59.5544682 28.9526753,58.9465596 C28.2498947,58.5985486 27.4692793,58.2638657 26.6425675,57.9099311 C24.0400123,56.7977769 21.0913565,55.534571 19.972953,53.5346185 C19.153798,52.070751 18.93314,50.3803062 18.6988798,48.5913816 C18.6603402,48.295202 18.623312,47.9990225 18.578727,47.6954384 C19.268661,47.6954384 19.9653962,47.8842529 20.7701933,48.2678054 C21.1346633,48.4417385 21.5661482,48.4119354 21.9021117,48.1896227 C22.2380752,47.96731 22.4274765,47.5862624 22.39897,47.1900166 C22.3704635,46.7937709 22.12838,46.4425264 21.76391,46.2685933 C20.0931058,45.4703894 18.5840167,45.2778727 17.0144734,45.6629061 L16.9948258,45.6680893 L16.9902917,45.6680893 L16.963843,45.6754938 C15.4094132,46.1019923 13.9411308,47.1460253 12.9353233,48.5410311 C12.5738987,49.0419809 12.6953586,49.7351689 13.2066117,50.0893097 C13.7178648,50.4434506 14.4253099,50.3244384 14.7867345,49.8234886 C15.2130153,49.2301509 15.7549187,48.7253401 16.3812152,48.3381481 C16.4043893,48.512894 16.4278154,48.6901081 16.4514933,48.8697904 C16.7016227,50.7853317 16.9600646,52.7660325 17.9855197,54.5986436 C19.4764725,57.2642597 22.8014559,58.6874025 25.7357538,59.9446847 C26.5322385,60.2852912 27.2848938,60.6110888 27.9272201,60.9280009 C29.0796292,61.4996275 30.1814078,62.1467798 31.2469138,62.7724591 C34.2446886,64.5332467 37.34448,66.3532701 41.4893741,66.3636364 L41.5422716,66.3636364 C44.1334916,66.3636364 46.8373077,65.9015962 49.1610177,65.0597058 C51.9328448,64.0563976 54.1824983,62.5170043 55.6674057,60.608127 C56.6112476,59.3937908 57.3669256,58.0313648 58.0976663,56.7133657 C58.4694599,56.0469617 58.8208502,55.4101756 59.1949108,54.7963435 C60.5014782,52.6490416 61.4302065,50.4713814 61.9637152,48.3040874 C62.5274946,48.6613532 62.9942806,49.1474453 63.3239357,49.7205662 C63.6263054,50.2589338 64.316834,50.4551879 64.8662746,50.1589119 C65.4157151,49.8626358 65.6160056,49.1860234 65.313636,48.6476557 C64.4891913,47.1956354 63.0466019,46.0864429 61.4377633,45.6754938 Z" id="Path"></path>
            </g>
        </g>
    </g>
</svg>