<?xml version="1.0" encoding="UTF-8"?>
<svg width="107px" height="64px" viewBox="0 0 107 64" version="1.1" xmlns="http://www.w3.org/2000/svg" xmlns:xlink="http://www.w3.org/1999/xlink">
    <title>Abstract Shape 95</title>
    <g id="Homepage" stroke="none" stroke-width="1" fill="none" fill-rule="evenodd">
        <g id="Post-Launch" transform="translate(-1122.000000, -2752.000000)" fill="#FFFFFF" fill-rule="nonzero">
            <g id="Abstract-Shape-95" transform="translate(1122.000000, 2752.000000)">
                <path d="M106.240421,22.8457113 C104.075038,16.2725662 97.3108651,10.334178 87.1958575,6.12589629 C77.3351023,2.02043468 65.0600087,-0.150329461 52.6514326,0.00809750091 C26.8765965,0.209541055 5.05008812,9.81588056 0.756400863,22.8457113 C0.258425724,24.3494357 0.00315298198,25.9215625 0,27.5040935 L0,36.4966597 C0.00315298198,38.0791908 0.258425724,39.6513175 0.756400863,41.1550419 C2.9239025,47.7292362 9.68807548,53.6665752 19.8020237,57.8748569 C29.3290727,61.8386785 41.0956615,64 53.0667116,64 C53.4904655,64 53.9170445,63.9972022 54.3464486,63.9916065 C80.1234035,63.7891138 101.948852,54.1848726 106.24254,41.1550419 C106.740857,39.6513706 106.996487,38.0792452 107,36.4966597 L107,27.5040935 C106.995803,25.9213961 106.739458,24.349268 106.240421,22.8457113 L106.240421,22.8457113 Z M105.938496,36.4966597 C105.935076,37.9687306 105.697327,39.4310627 105.234005,40.8297945 C103.255074,46.8311337 97.1222946,52.3634872 87.9660304,56.4070469 C78.6434427,60.5240495 66.6978179,62.8458963 54.3358547,62.9424213 C42.0681769,63.105045 29.9498723,60.957363 20.2162432,56.9075082 C10.3819726,52.8188335 3.83391418,47.1081186 1.76387596,40.8308437 C1.3006335,39.4317318 1.06288766,37.969067 1.05938496,36.4966597 L1.05938496,32.9965779 C5.99082196,45.6004395 27.4306548,54.8017935 52.6514326,54.9990403 C52.9339353,55.0032371 53.216438,55.0053355 53.4989406,55.0053355 C61.359577,55.0053355 68.7848062,53.7389689 74.9716144,51.3447284 C80.9539613,49.0281275 85.3302806,45.8553915 87.6280866,42.169604 C89.7267282,38.8027687 89.9152987,35.2051127 88.1747292,31.7648345 L88.1641354,31.7480476 C88.1641354,31.7480476 88.1641354,31.7480476 88.1641354,31.7428016 C86.2138076,27.9080298 81.8194788,24.4457187 75.7831033,21.9759368 C69.6143047,19.4578924 62.1774222,18.0771647 54.2722916,17.9890331 C45.866072,17.9302787 38.0022574,19.2648423 31.5262371,21.846887 C25.8172115,24.1236189 21.544712,27.2837646 19.3539039,30.8237154 C18.3803291,28.3193104 18.5191085,25.7173312 19.7723609,23.2402049 C21.6315816,19.5680568 25.9379814,16.2232545 31.8970218,13.8384565 C38.1039583,11.3550352 45.5736817,10.0425046 53.4989406,10.0425046 C75.7460248,10.0425046 95.6433932,17.1769638 103.019891,27.7989145 C103.96398,29.1409922 104.709888,30.6096125 105.235065,32.1603773 C105.684241,33.5155851 105.921461,34.9308656 105.938496,36.3571181 L105.938496,36.4966597 Z M19.8952496,31.999852 C21.8222708,28.4032452 26.0778202,25.1507712 31.9224471,22.8205309 C38.2702818,20.288847 45.9974357,18.9805131 54.2627572,19.0434642 C69.6693927,19.2113339 83.102394,24.5275552 87.103691,32.0029996 C85.1766698,35.5996064 80.920061,38.8510312 75.0775529,41.1812715 C68.7286588,43.7129554 60.9993862,45.0191909 52.7351241,44.9583382 C37.3284885,44.7915177 23.8944278,39.4752964 19.8952496,31.999852 Z" id="Shape"></path>
            </g>
        </g>
    </g>
</svg>