<?xml version="1.0" encoding="UTF-8"?>
<svg width="142px" height="29px" viewBox="0 0 142 29" version="1.1" xmlns="http://www.w3.org/2000/svg" xmlns:xlink="http://www.w3.org/1999/xlink">
    <title>Group 9</title>
    <defs>
        <linearGradient x1="0%" y1="27.9641268%" x2="100%" y2="72.0358732%" id="linearGradient-1">
            <stop stop-color="#FD08B9" offset="0%"></stop>
            <stop stop-color="#FFAF00" offset="100%"></stop>
        </linearGradient>
    </defs>
    <g id="Homepage" stroke="none" stroke-width="1" fill="none" fill-rule="evenodd">
        <g id="Post-Launch" transform="translate(-24.000000, -27.000000)">
            <g id="Group-9" transform="translate(24.121392, 27.700000)">
                <path d="M64.3186076,20.3 L64.3186076,13.84 L69.5186076,20.3 L73.6786076,20.3 L73.6786076,6.3 L69.0386076,6.3 L69.0386076,12.48 L64.0586076,6.3 L59.6786076,6.3 L59.6786076,20.3 L64.3186076,20.3 Z M80.8186076,20.56 C83.1786076,20.56 84.7186076,19.58 85.7986076,18.18 L83.3586076,16.24 C82.6386076,16.98 81.9586076,17.36 81.1386076,17.36 C80.1586076,17.36 79.3986076,16.86 79.0786076,15.9 L86.0986076,15.9 C86.1186076,15.66 86.1186076,15.38 86.1186076,15.14 C86.1186076,11.82 84.3186076,9.12 80.4386076,9.12 C77.1586076,9.12 74.8186076,11.6 74.8186076,14.86 L74.8186076,14.9 C74.8186076,18.3 77.2386076,20.56 80.8186076,20.56 Z M81.9786076,13.9 L79.0186076,13.9 C79.1586076,12.9 79.6986076,12.26 80.4586076,12.26 C81.2586076,12.26 81.8786076,12.86 81.9786076,13.9 Z M92.8986076,20.56 C96.4986076,20.56 99.0586076,17.92 99.0586076,14.84 L99.0586076,14.8 C99.0586076,11.72 96.5186076,9.12 92.9386076,9.12 C89.3386076,9.12 86.7786076,11.76 86.7786076,14.84 L86.7786076,14.88 C86.7786076,17.96 89.3186076,20.56 92.8986076,20.56 Z M92.9386076,16.78 C91.9386076,16.78 91.1386076,15.92 91.1386076,14.84 L91.1386076,14.8 C91.1386076,13.76 91.8786076,12.9 92.8986076,12.9 C93.8986076,12.9 94.6986076,13.76 94.6986076,14.84 L94.6986076,14.88 C94.6986076,15.92 93.9586076,16.78 92.9386076,16.78 Z M104.618608,23.5 L104.618608,19.06 C105.318608,19.84 106.238608,20.56 107.898608,20.56 C110.478608,20.56 112.558608,18.26 112.558608,14.8 L112.558608,14.76 C112.558608,11.42 110.498608,9.12 107.858608,9.12 C106.198608,9.12 105.358608,9.92 104.618608,10.72 L104.618608,9.38 L100.078608,9.38 L100.078608,23.5 L104.618608,23.5 Z M106.338608,16.82 C105.298608,16.82 104.518608,15.94 104.518608,14.86 L104.518608,14.82 C104.518608,13.72 105.298608,12.86 106.338608,12.86 C107.378608,12.86 108.158608,13.72 108.158608,14.82 L108.158608,14.86 C108.158608,15.96 107.378608,16.82 106.338608,16.82 Z M118.178608,20.3 L118.178608,5.7 L113.638608,5.7 L113.638608,20.3 L118.178608,20.3 Z M125.238608,20.56 C127.598608,20.56 129.138608,19.58 130.218608,18.18 L127.778608,16.24 C127.058608,16.98 126.378608,17.36 125.558608,17.36 C124.578608,17.36 123.818608,16.86 123.498608,15.9 L130.518608,15.9 C130.538608,15.66 130.538608,15.38 130.538608,15.14 C130.538608,11.82 128.738608,9.12 124.858608,9.12 C121.578608,9.12 119.238608,11.6 119.238608,14.86 L119.238608,14.9 C119.238608,18.3 121.658608,20.56 125.238608,20.56 Z M126.398608,13.9 L123.438608,13.9 C123.578608,12.9 124.118608,12.26 124.878608,12.26 C125.678608,12.26 126.298608,12.86 126.398608,13.9 Z M136.358608,20.56 C139.318608,20.56 141.098608,19.18 141.098608,16.8 L141.098608,16.76 C141.098608,14.52 139.438608,13.76 136.678608,13.08 C135.578608,12.8 135.338608,12.66 135.338608,12.44 L135.338608,12.4 C135.338608,12.18 135.538608,12.06 135.978608,12.06 C136.898608,12.06 138.298608,12.44 139.458608,13.08 L140.898608,10.38 C139.578608,9.58 137.798608,9.12 135.998608,9.12 C133.158608,9.12 131.238608,10.46 131.238608,12.86 L131.238608,12.9 C131.238608,15.16 132.938608,15.9 135.698608,16.58 C136.798608,16.86 136.998608,17 136.998608,17.22 L136.998608,17.26 C136.998608,17.52 136.778608,17.62 136.338608,17.62 C135.098608,17.62 133.618608,17.22 132.298608,16.4 L130.758608,18.98 C132.318608,20.02 134.238608,20.56 136.358608,20.56 Z" id="Neoples" fill="#FFFFFF" fill-rule="nonzero"></path>
                <polygon id="N" fill="url(#linearGradient-1)" points="13.9787342 28 13.9787342 15.6268354 29.644557 28 42.1772152 28 42.1772152 1.24733557e-13 28.198481 1.24733557e-13 28.198481 11.5296203 13.195443 1.24733557e-13 0 1.24733557e-13 0 28"></polygon>
            </g>
        </g>
    </g>
</svg>